<svg xmlns="http://www.w3.org/2000/svg" viewBox="0 0 296.53 52.11"><title>Asset 5</title><g id="Layer_2" data-name="Layer 2"><g id="Layer_1-2" data-name="Layer 1"><path d="M23.4,39H5.23v23.4A2.67,2.67,0,0,1,2.57,65,2.6,2.6,0,0,1,0,62.44V15.64a2.49,2.49,0,0,1,.62-2.11A2.45,2.45,0,0,1,2.57,13H23.4A2.66,2.66,0,0,1,26,15.64a2.6,2.6,0,0,1-2.57,2.57H5.23v15.6H23.4A2.6,2.6,0,0,1,26,36.39,2.67,2.67,0,0,1,23.4,39Z" transform="translate(0 -12.99)"/><path d="M52,38.73A2.69,2.69,0,0,1,48.67,38c-.78-1.24-1-2.34-2.34-3.19a5,5,0,0,0-3.43-1H37.75V62.44a2.61,2.61,0,0,1-2.65,2.5,2.54,2.54,0,0,1-2.57-2.5V31.24a2.53,2.53,0,0,1,2.57-2.65h7.8a10,10,0,0,1,6.94,2.18,8.61,8.61,0,0,1,3.36,4.76A2.63,2.63,0,0,1,52,38.73Z" transform="translate(0 -12.99)"/><path d="M85.25,64.16a2.44,2.44,0,0,1-2,.85H67.63c-5.07,0-7.8-5.3-7.8-10.37s2.73-10.45,7.8-10.45h13V39a4.87,4.87,0,0,0-1.56-3.75,4.6,4.6,0,0,0-3.66-1.48H65.05a2.67,2.67,0,0,1-2.65-2.57,2.73,2.73,0,0,1,2.65-2.65H75.43a9.51,9.51,0,0,1,7.41,3,9.56,9.56,0,0,1,3,7.49v23.4A2.78,2.78,0,0,1,85.25,64.16Zm-4.6-14.75h-13c-2.27,0-2.58,3-2.58,5.23s.31,5.15,2.58,5.15h13Z" transform="translate(0 -12.99)"/><path d="M126.13,65a2.6,2.6,0,0,1-2.58-2.57V39a5.06,5.06,0,0,0-5.22-5.23h-5.15V62.44A2.67,2.67,0,0,1,110.53,65,2.6,2.6,0,0,1,108,62.44V33.81H97.58V62.44A2.67,2.67,0,0,1,94.93,65a2.6,2.6,0,0,1-2.58-2.57V31.24a2.47,2.47,0,0,1,.86-2,2.57,2.57,0,0,1,1.72-.62h23.4a9.46,9.46,0,0,1,7.48,3,9.36,9.36,0,0,1,3,7.41v23.4A2.67,2.67,0,0,1,126.13,65Z" transform="translate(0 -12.99)"/><path d="M158.65,65h-13a9.36,9.36,0,0,1-7.49-3,9.51,9.51,0,0,1-2.89-7.33V44.19l.08-2.58c.31-7.1,5.77-12.95,12.95-13a13,13,0,0,1,12.95,13v5.23a2.21,2.21,0,0,1-.63,1.71,2.28,2.28,0,0,1-1.95.86H140.48v5.23a4.57,4.57,0,0,0,1.4,3.67,4.79,4.79,0,0,0,3.75,1.48h13a2.67,2.67,0,0,1,2.58,2.65A2.6,2.6,0,0,1,158.65,65Zm-2.57-23.4a7.8,7.8,0,0,0-15.6,0v2.58h15.6Z" transform="translate(0 -12.99)"/><path d="M198.82,63a2.3,2.3,0,0,1-2.41,2,2.26,2.26,0,0,1-2.27-1.32L186,47.31l-8.11,16.38A2.32,2.32,0,0,1,175.58,65,2.54,2.54,0,0,1,173,63l-5.14-31.13a2.63,2.63,0,0,1,2.49-3.27,2.48,2.48,0,0,1,2.5,1.87l4,23.63,6.86-13.8A2.31,2.31,0,0,1,186,39a2.42,2.42,0,0,1,2.34,1.25L195.16,54l3.9-23.56a2.38,2.38,0,0,1,2.49-1.87c1.56,0,2.81,1.09,2.5,3.19Z" transform="translate(0 -12.99)"/><path d="M223.7,65.09a13,13,0,0,1-13-13V41.61a13.29,13.29,0,0,1,13-13,13,13,0,0,1,13,13V52.07A13.29,13.29,0,0,1,223.7,65.09Zm7.8-23.48a7.8,7.8,0,0,0-15.6,0V52.07a7.8,7.8,0,0,0,15.6,0Z" transform="translate(0 -12.99)"/><path d="M262.63,38.73a2.69,2.69,0,0,1-3.28-.71c-.78-1.24-1-2.34-2.34-3.19a5,5,0,0,0-3.43-1h-5.15V62.44a2.61,2.61,0,0,1-2.65,2.5,2.54,2.54,0,0,1-2.58-2.5V31.24a2.53,2.53,0,0,1,2.58-2.65h7.8a10,10,0,0,1,6.94,2.18,8.71,8.71,0,0,1,3.36,4.76A2.64,2.64,0,0,1,262.63,38.73Z" transform="translate(0 -12.99)"/><path d="M295.08,64.7a2.62,2.62,0,0,1-3.59-1.32L282.44,43l-6.71,5.07V62.44A2.67,2.67,0,0,1,273.08,65a2.6,2.6,0,0,1-2.58-2.57V15.64A2.66,2.66,0,0,1,273.08,13a2.73,2.73,0,0,1,2.65,2.65v25.9L292.42,28.9a2.61,2.61,0,0,1,3.59.62,2.71,2.71,0,0,1-.55,3.75l-8.81,6.63,9.6,21.29A2.77,2.77,0,0,1,295.08,64.7Z" transform="translate(0 -12.99)"/></g></g></svg>